<?xml version="1.0" encoding="utf-8"?>
<!-- Generator: Adobe Illustrator 27.2.0, SVG Export Plug-In . SVG Version: 6.00 Build 0)  -->
<svg version="1.1" id="Layer_2_00000057851585078091796190000000433573075099867570_"
	 xmlns="http://www.w3.org/2000/svg" xmlns:xlink="http://www.w3.org/1999/xlink" x="0px" y="0px" viewBox="0 0 300.1 300.1"
	 style="enable-background:new 0 0 300.1 300.1;" xml:space="preserve">
<style type="text/css">
	.st0{fill:#FFFFFF;}
</style>
<g id="Layer_1-2">
	<g>
		<path d="M150.1,0L150.1,0c82.9,0,150.1,67.2,150.1,150.1v0c0,82.9-67.2,150.1-150.1,150.1h0C67.2,300.1,0,232.9,0,150.1v0
			C0,67.2,67.2,0,150.1,0z"/>
		<g>
			<path class="st0" d="M163.8,129.4c0.3,4.4-0.7,8.8-3.9,12.2c-9.5,10.3-26.1,6.6-36.3,15.8c-1.7,1.6-2.9,3.6-3.6,5.8
				c-0.7,2.8-0.6,5.7,0.4,8.4c0.9,3,1.9,6.2,3,9.6c1.1,3.3,2,6.6,2.8,9.8c0.8,3,1.3,6.1,1.6,9.2c0.3,2.6,0.2,5.2-0.3,7.8
				c-0.4,2.1-1.5,4.1-3.1,5.6c-6.1,5.8-17.4,2.7-22.9-2.2c-9.4-8.4-6.8-22.4-6.6-33.7c0.2-13.7,0.2-27.5-1.1-41.2
				c-0.7-5.5-1.1-11.1-1.1-16.7c0.4-11.2,5.7-20,15.8-25c9.3-4.6,21.2-5.2,30.7-0.9C153.1,100.2,162.7,114.4,163.8,129.4
				L163.8,129.4z M135,133.2c1.2-0.2,2.4-0.7,3.4-1.4c2.7-2.1,3.2-5.8,3.6-8.9c0.6-3.9,0.3-8.2-2.9-10.9c-3-2.4-6.9-3.4-10.6-2.7
				c-4.8,1.1-8.9,3.9-11.6,8c-3,4.2-4.1,9.9,0.7,13.4c4.4,3.2,10.2,3,15.3,2.8C133.6,133.4,134.3,133.3,135,133.2L135,133.2z"/>
			<path class="st0" d="M145.9,157.6c1.4-0.5,3.4-0.9,5.7-1.5c2.4-0.5,4.8-1.2,7.4-2c2.6-0.8,5.1-1.9,7.5-3c2.3-1.1,4.4-2.6,6.1-4.4
				c1.6-1.8,2.7-4,3-6.3c0.3-3-0.2-6-1.5-8.7c-1.1-3.6-2.2-7.3-3.4-11.2c-1.2-3.8-2.2-7.5-3.1-11.2c-0.8-3.5-1.4-7-1.7-10.5
				c-0.3-3-0.2-6.1,0.5-9c0.5-2.5,1.7-4.9,3.5-6.8c2-2,4.6-3.3,7.4-3.6c3.7-0.6,7.5-0.1,11,1.4c2.8,1.4,5.2,3.4,7.1,5.9
				c4.6,6.2,5.8,14,5.8,21.5c0,8.2,0.1,16.4,0.5,24.6c0.2,4.1,0.4,8.3,0.6,12.5c0.4,7.6,1.1,15.2,2.3,22.7
				c1.2,7.7,3.1,14.8,2.3,22.6c-0.4,5.1-2,10-4.6,14.4c-2.8,4.7-6.7,8.6-11.4,11.3c-13.1,7.7-29,5.9-40.7-3.4
				c-5.8-4.6-10.7-10.7-14-17.5s-6.1-15.2-4.6-22.4c0.5-2.5,1.5-4.8,2.9-6.9c1.4-2.1,3.1-3.9,5-5.3
				C141.5,159.4,143.6,158.3,145.9,157.6L145.9,157.6z M164.2,195.1c1.5,1.1,3.2,1.9,5.1,2.3c2.5,0.4,5.1,0.1,7.4-0.9
				c2.4-0.7,4.4-2.2,5.8-4.3c1-1.5,1.6-3.3,1.8-5.1c0.1-1.3,0-2.7-0.2-4c-0.2-1.3-0.9-2.4-1.9-3.3c-2-1.8-4.4-3-7-3.6
				c-2.7-0.9-5.6-1.2-8.4-0.7c-3,0.8-6.7,3.3-7,6.9c-0.1,1.3,0,2.7,0.3,4C160.4,187.7,162.6,193.9,164.2,195.1L164.2,195.1z"/>
		</g>
	</g>
</g>
</svg>
