<?xml version="1.0" encoding="UTF-8"?>
<svg id="Layer_1" data-name="Layer 1" xmlns="http://www.w3.org/2000/svg" viewBox="0 0 193.74 83.86">
  <defs>
    <style>
      .cls-1 {
        fill: #f2ede7;
      }
    </style>
  </defs>
  <g id="Group_441" data-name="Group 441">
    <path id="Path_2119" data-name="Path 2119" class="cls-1" d="m23.97,23.65c4.84-.16,8.46,3.08,13.05,4,1.83.51,3.78.36,5.51-.41,1.56-.96,2.66-2.52,3.03-4.32.8-3.39.29-6.95-1.43-9.97-1.48-2.44-3.89-4.17-6.67-4.78-.47-.09-.95-.15-1.43-.19-1.12-.09-2.25-.1-3.38-.03-5.29.13-10.55.79-15.7,1.97-4.35,1.11-8.27,2.46-11.43,5.81-2.24,2.38-3.87,5.7-3.16,8.89.47,1.8,1.43,3.43,2.78,4.7,4.38,4.46,10.95,6.62,16.76,8.41,1.66.63,3.25,1.42,4.76,2.35,1.15.71,2.22,1.54,3.19,2.48,2.35,2.16,3.53,5.31,3.19,8.49-.43,2.78-2.76,5.32-5.59,5.46-1.62,0-3.2-.49-4.54-1.4-2.76-1.65-5.41-3.32-8.3-4.7-2.06-1.01-4.28-1.65-6.57-1.89-1.84-.19-3.69.34-5.16,1.46-1.43,1.13-2.38,3.13-2.79,6.08-.25,2.47.17,4.96,1.22,7.22,2.51,4.97,7.51,7.95,12.84,9.22,4.11.96,8.39.98,12.51.05,8-1.73,15.22-7,17.27-15.21.65-2.33.72-4.77.21-7.14-.46-2.15-1.29-4.19-2.46-6.05-1.13-1.8-2.49-3.43-4.05-4.86-3.14-2.75-6.62-5.09-10.35-6.95-2.19-1.03-4.06-2.63-5.43-4.62-.57-.94-.94-2.19-.3-3.08.63-.67,1.52-1.03,2.44-.98Z"/>
    <path id="Path_2120" data-name="Path 2120" class="cls-1" d="m112.03,59.93c.17,3.79-1.21,7.49-3.82,10.25-3,3.17-7.48,4.48-9.89,4.98-.91.19-1.84.29-2.77.3-1.64.03-3.27-.37-4.72-1.14-1.95-1.09-3.46-2.84-4.25-4.93-1.14-2.85-.82-6.14-.51-9.31.06-.9.15-1.76.19-2.59l.43-7.53c0-1.75.34-3.49.97-5.13.34-.94.94-1.76,1.71-2.38,1.69-.98,3.81-.85,5.36.34.74.74,1.25,1.67,1.5,2.68.31,1.21.49,2.44.52,3.69.04,1.33,0,2.7-.09,4.03-.09,1.35-.21,2.6-.34,3.73-.15,1.14-.23,2.04-.28,2.68-.05.85-.05,1.7,0,2.55.03.64.19,1.27.47,1.84.24.48.61.87,1.07,1.14.62.32,1.3.48,1.99.47.43.02.84-.2,1.05-.58.39-.62.65-1.31.77-2.04.18-.99.3-1.98.35-2.98.06-1.09.08-2.21.08-3.28s-.02-2.12-.04-3.09-.02-1.74,0-2.32c.06-.99.15-1.97.3-2.94.43-3.07,1.54-4.8,3.35-5.17.24-.04.48-.06.73-.06.95.02,1.88.33,2.66.88.91.61,1.61,1.49,2,2.51.28.84.42,1.73.43,2.62.09,1.27.2,2.53.3,3.8.19,2.29.38,4.63.47,6.97Z"/>
    <path id="Path_2121" data-name="Path 2121" class="cls-1" d="m130.12,60.16c-.27-6.38-.51-12.73-.67-19.1-.05-2.14-.11-4.27-.16-6.35-.11-3.32-.27-6.7-.16-10.03.08-3.54.49-7.05.27-10.59-.08-1.52-.25-3.04-.49-4.54-.24-1.46-.63-2.89-1.16-4.27-.49-1.22-1.16-2.36-2-3.38-.77-.93-1.84-1.56-3.03-1.78-1.27-.26-2.58-.04-3.7.6-.83.55-1.49,1.32-1.92,2.21-.4.83-.64,1.73-.7,2.65-.05.89-.08,1.54-.08,1.95v36.35c0,5.97-.62,12.11.08,18.05.07,1.39.5,2.74,1.24,3.92,1.46,1.97,4.24,2.43,6.7,2.35,1.29.05,2.57-.28,3.68-.95,2.13-1.46,2.24-4.51,2.11-7.08Z"/>
    <path id="Path_2122" data-name="Path 2122" class="cls-1" d="m171.17,35.69c-.2-1.81-.67-3.58-1.38-5.26-.9-2.24-2.12-4.33-3.62-6.22-1.68-2.08-3.67-3.9-5.89-5.4-5.4-3.51-12.24-3.96-18.05-1.19-5.33,2.59-8.08,7.22-8.27,13.08,0,2.92.19,5.83.57,8.73.95,10.16.57,20.46.41,30.65.07,1.22.28,2.42.62,3.59.4,1.41,1.07,2.72,1.97,3.87,1.01,1.24,2.28,2.24,3.73,2.92,1.82.77,3.81,1.01,5.76.7,1.29-.07,2.52-.56,3.51-1.38.82-.8,1.38-1.82,1.62-2.95.28-1.34.33-2.72.16-4.08-.17-1.62-.46-3.23-.86-4.81-.41-1.67-.89-3.38-1.46-5.14-.54-1.76-1.05-3.43-1.57-5-.49-1.41-.55-2.93-.19-4.38.35-1.15.99-2.2,1.86-3.03.92-.84,1.98-1.51,3.13-2,1.2-.51,2.43-.93,3.7-1.24,4.16-1.09,9.13-1.72,12.16-5.05.77-.84,1.36-1.84,1.73-2.92.36-1.13.47-2.32.35-3.5Zm-11.4-3.42c-.21,1.65-.48,3.57-1.89,4.65-.54.38-1.16.64-1.81.76-.38.07-.76.12-1.14.13-2.67.11-5.73.22-8-1.48-2.49-1.81-1.95-4.81-.35-7.03,1.42-2.12,3.59-3.61,6.08-4.16,1.98-.38,4.03.13,5.59,1.4,1.68,1.41,1.81,3.65,1.51,5.74h0Z"/>
    <path id="Path_2123" data-name="Path 2123" class="cls-1" d="m85.32,42.71c-.61,1.79-1.98,3.21-3.75,3.88-1.31.52-2.71.78-4.12.76-.53,0-1.05-.03-1.58-.09-.64-.06-1.27-.18-1.91-.3-.98-.21-1.97-.33-2.97-.36h-.33c-2.17.16-4.2,1.12-5.7,2.69-1.52,1.59-2.72,3.45-3.54,5.49-1.36,3.97-.12,7.33,3.48,9.42,2.29,1.26,4.84,1.99,7.45,2.15.61.06,1.21.09,1.82.12,1.31.05,2.62.19,3.91.42,1.33.24,3.79.97,5.03,2.82,1.09,1.64,1.09,3.76-.06,6.45-.71,1.93-2.07,3.54-3.85,4.57-1.48.68-3.1.99-4.72.91h-.49c-8.39-.15-16.08-4.21-21.72-11.42-1.2-1.54-2.22-3.2-3.06-4.97-.87-1.81-1.45-3.74-1.73-5.73-.94-6.88,2.33-14.27,8.78-19.72,2.78-2.46,6.1-4.23,9.69-5.15,1.53-.37,3.09-.55,4.67-.55,1.91,0,3.81.25,5.66.73,2.91.73,6.48,1.85,8.06,3.73.3.36.54.76.73,1.18.42.93.51,1.98.24,2.96Z"/>
    <path id="Path_2124" data-name="Path 2124" class="cls-1" d="m193.18,60.16c-.24-1.39-.51-2.78-.74-4.22-.27-1.7-.49-3.57-.7-5.59s-.38-4.13-.49-6.35-.21-4.41-.32-6.57c-.16-3.28-.2-6.57-.24-9.85-.07-4.97.06-10.05-3.06-14.23-.99-1.3-2.25-2.36-3.7-3.11-1.8-.83-3.8-1.1-5.76-.78-1.47.21-2.83.88-3.89,1.92-.9,1-1.53,2.22-1.81,3.54-.33,1.55-.42,3.15-.24,4.73.18,1.85.48,3.68.89,5.49.46,1.92.97,3.89,1.62,5.86.62,1.97,1.21,3.92,1.78,5.84.68,1.42.95,3,.78,4.57-.21,1.24-.77,2.4-1.62,3.32-.9.96-1.97,1.75-3.16,2.32-1.27.63-2.59,1.16-3.94,1.59-1.35.43-2.65.78-3.87,1.05-1.24.27-2.24.54-3,.76-1.2.37-2.32.94-3.32,1.7-1.02.78-1.91,1.72-2.62,2.78-.72,1.11-1.23,2.33-1.51,3.62-.3,1.42-.3,2.88,0,4.3.1,1.24.37,2.45.78,3.62.51,1.51,1.16,2.97,1.95,4.35.87,1.57,1.86,3.07,2.97,4.49,1.19,1.51,2.55,2.88,4.06,4.08,1.53,1.23,3.21,2.25,5,3.05,1.87.83,3.88,1.3,5.92,1.4,3.64.04,7.22-.87,10.4-2.65,2.44-1.45,4.49-3.48,5.95-5.92,1.35-2.31,2.17-4.88,2.4-7.54.17-2.54,0-5.09-.5-7.59Zm-11.33,5.81c-.13.94-.45,1.84-.95,2.65-.74,1.06-1.82,1.84-3.05,2.22-1.21.54-2.56.71-3.86.48-.97-.22-1.88-.63-2.68-1.21-.84-.62-1.97-3.84-2.13-4.54-.17-.68-.21-1.38-.14-2.08.16-1.92,2.08-3.22,3.68-3.62,1.47-.25,2.98-.12,4.38.38,1.35.33,2.6.98,3.65,1.89.52.46.87,1.08,1,1.76.13.69.17,1.39.11,2.08h0Z"/>
  </g>
</svg>